<svg viewBox="0 0 490 170" xmlns="http://www.w3.org/2000/svg">
  <g transform="translate(40, 20)">
    <!-- E letterform -->
    <rect x="0" y="0" width="14" height="130" fill="#1a6e8a"/>
    <rect x="14" y="0" width="62" height="14" fill="#1a6e8a"/>
    <rect x="14" y="58" width="38" height="14" fill="#1a6e8a"/>
    <rect x="14" y="116" width="62" height="14" fill="#1a6e8a"/>
    <!-- Sound arcs -->
    <path d="M86 42 A28 28 0 0 1 86 88" fill="none" stroke="#1a6e8a" stroke-width="4.5" stroke-linecap="round"/>
    <path d="M100 30 A42 42 0 0 1 100 100" fill="none" stroke="#1a6e8a" stroke-width="4.5" stroke-linecap="round"/>
    <!-- Wordmark (JetBrains Mono Medium, vectorized) -->
    <g fill="#2196f3" transform="translate(135, 52)">
    <path d="M300 -10Q201 -10 140.5 49.0Q80 108 80 210V340Q80 442 140.5 501.0Q201 560 300 560Q366 560 415.5 533.5Q465 507 492.5 459.5Q520 412 520 349V250H177V202Q177 142 210.0 108.0Q243 74 300 74Q348 74 379.0 92.0Q410 110 416 142H515Q505 72 446.0 31.0Q387 -10 300 -10ZM177 349V323H423V349Q423 412 391.0 446.0Q359 480 300 480Q241 480 209.0 446.0Q177 412 177 349Z" transform="translate(0.0,0) scale(0.042000,-0.042000) translate(0,-720)"/>
    <path d="M140 286V375H460V286Z" transform="translate(25.2,0) scale(0.042000,-0.042000) translate(0,-720)"/>
    <path d="M236 0 50 550H155L272 189Q282 157 290.0 126.5Q298 96 302 78Q306 96 313.0 126.5Q320 157 330 189L446 550H551L364 0Z" transform="translate(50.4,0) scale(0.042000,-0.042000) translate(0,-720)"/>
    <path d="M300 -8Q199 -8 139.5 50.0Q80 108 80 212V338Q80 442 139.5 500.0Q199 558 300 558Q401 558 460.5 500.0Q520 442 520 338V212Q520 108 460.5 50.0Q401 -8 300 -8ZM300 79Q356 79 388.5 110.5Q421 142 421 203V347Q421 408 388.5 439.5Q356 471 300 471Q244 471 211.5 439.5Q179 408 179 347V203Q179 142 211.5 110.5Q244 79 300 79Z" transform="translate(75.6,0) scale(0.042000,-0.042000) translate(0,-720)"/>
    <path d="M83 0V90H276V460H103V550H375V90H556V0ZM316 647Q282 647 262.0 664.5Q242 682 242 712Q242 743 262.0 761.0Q282 779 316 779Q350 779 370.0 761.0Q390 743 390 712Q390 682 370.0 664.5Q350 647 316 647Z" transform="translate(100.8,0) scale(0.042000,-0.042000) translate(0,-720)"/>
    <path d="M308 -10Q207 -10 146.0 46.5Q85 103 85 202V349Q85 447 146.0 503.5Q207 560 308 560Q405 560 464.5 508.5Q524 457 527 368H429Q426 418 393.5 445.5Q361 473 308 473Q251 473 217.5 440.5Q184 408 184 349V202Q184 142 217.5 110.0Q251 78 308 78Q362 78 394.0 105.0Q426 132 429 182H527Q524 93 464.5 41.5Q405 -10 308 -10Z" transform="translate(126.0,0) scale(0.042000,-0.042000) translate(0,-720)"/>
    <path d="M300 -10Q201 -10 140.5 49.0Q80 108 80 210V340Q80 442 140.5 501.0Q201 560 300 560Q366 560 415.5 533.5Q465 507 492.5 459.5Q520 412 520 349V250H177V202Q177 142 210.0 108.0Q243 74 300 74Q348 74 379.0 92.0Q410 110 416 142H515Q505 72 446.0 31.0Q387 -10 300 -10ZM177 349V323H423V349Q423 412 391.0 446.0Q359 480 300 480Q241 480 209.0 446.0Q177 412 177 349Z" transform="translate(151.2,0) scale(0.042000,-0.042000) translate(0,-720)"/>
    </g>
  </g>
</svg>
